<svg width="26" height="28" viewBox="0 0 26 28" fill="none" xmlns="http://www.w3.org/2000/svg">
<path fill-rule="evenodd" clip-rule="evenodd" d="M2.05138 13.8673L20.9872 25.9247L20.9882 25.9253C21.1714 26.0398 21.3298 26.0917 21.4803 26.0658C21.6471 26.037 21.7917 25.9282 21.9376 25.7896C22.1583 25.58 22.5073 25.5894 22.7165 25.8104C22.9258 26.0313 22.9164 26.3809 22.6958 26.5904C22.3755 26.8946 22.0333 27.0903 21.6671 27.1534C21.2853 27.2192 20.8661 27.151 20.4002 26.8587L20.397 26.8567L1.45707 14.7966C1.45515 14.7954 1.45325 14.7942 1.45137 14.7929L1.45109 14.7927C0.990912 14.4916 0.753505 14.139 0.653191 13.7642C0.556935 13.4047 0.590921 13.0116 0.732455 12.5928C0.829918 12.3044 1.14292 12.1494 1.43092 12.2471C1.71898 12.3447 1.87361 12.6582 1.77609 12.9467C1.71163 13.1374 1.67359 13.3146 1.71744 13.4783C1.75696 13.6261 1.8706 13.7486 2.05138 13.8673ZM21.2935 1.06456C22.6794 1.68621 23.3005 3.31779 22.6799 4.70582C22.0592 6.0938 20.4302 6.716 19.0444 6.09435C17.6585 5.47269 17.0373 3.84106 17.658 2.45309C18.2787 1.06511 19.9077 0.442905 21.2935 1.06456ZM12.7623 10.5862L14.1116 7.56879C14.1694 7.43954 14.1831 7.29483 14.1507 7.15699C14.1182 7.01915 14.0414 6.89583 13.9321 6.80604L11.0109 4.40803C10.4276 3.92978 10.2142 3.52455 10.4559 2.97548L10.4748 2.93249C10.7166 2.38336 11.2341 1.97165 11.9052 2.37661C11.9052 2.37661 14.6641 4.39458 15.4134 4.99323C15.5402 5.09457 15.6794 5.17946 15.8274 5.24589C16.726 5.64893 20.0231 7.29269 21.1162 7.78302C21.3454 7.8858 21.5552 8.02711 21.7367 8.20083L24.7357 11.0703C25.1786 11.5041 25.5221 11.963 25.274 12.5093L25.2546 12.5521C25.0065 13.0983 24.3424 13.5165 23.8178 13.0912L20.7614 10.1032C20.742 10.0842 20.7183 10.0702 20.6923 10.0623C20.6663 10.0544 20.6388 10.053 20.6121 10.0581C20.5854 10.0632 20.5604 10.0746 20.5391 10.0915C20.5178 10.1084 20.5009 10.1302 20.4898 10.155L18.7274 14.0962L21.5526 18.0091C21.7131 18.2313 21.7939 18.5012 21.782 18.7752C21.7701 19.0491 21.6661 19.311 21.487 19.5184L19.0865 22.2976C18.8946 22.5196 18.6226 22.6562 18.3303 22.6774C18.0379 22.6985 17.7491 22.6025 17.5274 22.4104C17.0658 22.0104 17.0153 21.3114 17.4147 20.849L18.8097 19.2341C18.8556 19.181 18.8823 19.1139 18.8853 19.0437C18.8884 18.9735 18.8677 18.9043 18.8266 18.8474L17.7104 17.3015C15.8757 14.7748 13.3327 13.761 11.4177 13.0807L9.13206 12.6412C9.06316 12.628 8.99181 12.6384 8.92959 12.6709C8.86736 12.7033 8.8179 12.7559 8.78924 12.82L7.91772 14.7689C7.6682 15.3268 7.01435 15.5765 6.45726 15.3267C6.18974 15.2066 5.98077 14.9851 5.87631 14.7108C5.77186 14.4365 5.78048 14.1318 5.90028 13.8639C6.33508 12.8915 6.98618 11.4359 7.40031 10.5101C7.51222 10.2598 7.70523 10.0548 7.94806 9.92815C8.19089 9.80153 8.4693 9.76077 8.73815 9.81247L12.7623 10.5862Z" fill="#0044F0"/>
</svg>
